<svg xmlns="http://www.w3.org/2000/svg" xmlns:xlink="http://www.w3.org/1999/xlink" viewBox="0 0 719.2 950.76"><defs><style>.cls-1{fill:url(#linear-gradient);}.cls-2{fill:url(#linear-gradient-2);}.cls-3{fill:url(#linear-gradient-3);}.cls-4{fill:url(#linear-gradient-4);}.cls-5{fill:url(#linear-gradient-5);}.cls-6{fill:url(#linear-gradient-6);}.cls-7{fill:#fff;stroke:#231f20;stroke-miterlimit:10;}.cls-8{fill:url(#linear-gradient-7);}</style><linearGradient id="linear-gradient" x1="467.27" y1="972.2" x2="493.24" y2="544.34" gradientUnits="userSpaceOnUse"><stop offset="0" stop-color="#fff"/><stop offset="1" stop-color="#bcbec0"/></linearGradient><linearGradient id="linear-gradient-2" x1="333.84" y1="936.19" x2="347.64" y2="422.79" xlink:href="#linear-gradient"/><linearGradient id="linear-gradient-3" x1="706.46" y1="882.25" x2="717.04" y2="488.74" xlink:href="#linear-gradient"/><linearGradient id="linear-gradient-4" x1="824.85" y1="674.55" x2="398.15" y2="380.2" gradientUnits="userSpaceOnUse"><stop offset="0" stop-color="#f1f2f2"/><stop offset="1" stop-color="#a7a9ac"/></linearGradient><linearGradient id="linear-gradient-5" x1="883.24" y1="-162.09" x2="-186.88" y2="867.09" gradientUnits="userSpaceOnUse"><stop offset="0.17" stop-color="#fff"/><stop offset="0.54" stop-color="#d1d3d4"/><stop offset="0.87" stop-color="#f1f2f2"/></linearGradient><linearGradient id="linear-gradient-6" x1="373.75" y1="331.3" x2="1336.96" y2="684.06" gradientUnits="userSpaceOnUse"><stop offset="0" stop-color="#d1d3d4"/><stop offset="0.04" stop-color="#e4e5e5"/><stop offset="0.09" stop-color="#f3f4f4"/><stop offset="0.15" stop-color="#fcfcfc"/><stop offset="0.24" stop-color="#fff"/><stop offset="0.31" stop-color="#f1f1f1"/><stop offset="0.43" stop-color="#ccc"/><stop offset="0.6" stop-color="#8f8f8f"/><stop offset="0.81" stop-color="#3d3d3d"/><stop offset="0.95"/></linearGradient><linearGradient id="linear-gradient-7" x1="463.24" y1="173.26" x2="534.18" y2="197.61" gradientUnits="userSpaceOnUse"><stop offset="0.02" stop-color="#d1d3d4"/><stop offset="0.43" stop-color="#f6f6f6"/><stop offset="0.58" stop-color="#f2f2f2"/><stop offset="0.73" stop-color="#e6e6e7"/><stop offset="0.88" stop-color="#d1d3d4"/></linearGradient></defs><g id="Layer_7" data-name="Layer 7"><path class="cls-1" d="M810.65,655,733.34,504.64c-2.69-18.25-19.81-123.16-108-174.7C524,270.71,400.72,323.89,339.46,373.35c-45.91,37.06-73.32,93.88-128.12,207.53-36.17,75-98.18,64.62-49.49,130.26,106,143,233.91,261.68,256,243.55-8-24.76-12.77-41.35-15.59-53.47-1.35-5.75-2.25-10.49-2.82-14.62-35-34.89-40.4-43.36-61.61-112-33.15-107.23-34.86-96.82-36-115.41-2.73-44.94,7.13-108.87,40.24-162.79,22.11-36,54.58-67.56,100.59-86,95.93-38.51,208.9-3.33,262.59,69.88,19.49,26.58,29.81,49.56,34.09,71.55,8.31,42.7-6.19,81.65-20.8,135.84-24.57,91.14-16.6,54.41-78.14,148a98.61,98.61,0,0,1,.34,16.61c-1.21,22.66-23.73,55.79-10.55,78.38,23.53,25.64,71.66-49.79,130.7-90.59,39.92-27.58,59.81-47.1,63-116.51C825.19,696.61,822.41,667.12,810.65,655Z" transform="translate(-116.53 -5.77)"/></g><g id="Layer_5" data-name="Layer 5"><path class="cls-2" d="M400.76,885.94c-.51,4.14.14,9.53,1.49,15.28-38.42-32-78-90-102.54-194.34-13.53-57.57-45.91-151.64,1.06-225.53,7.64-12,35.72-33.56,41.29-39.17V571.35c-4.77,31.2-14.25,74.9-7.67,127.06C345.8,788.88,392.65,848.06,401,870.65,402.59,876.41,401.63,878.93,400.76,885.94Z" transform="translate(-116.53 -5.77)"/><path class="cls-3" d="M781.47,707.94C727,717,688.89,790.44,640.73,852.27c.33-6.26-2.55-5.15-4-16.21-.64-5,1-11.53,4.48-20.94,13.41-31.06,24.85-41.84,35-57.88,62-97.47,9.7-142.13.36-152-12.73-13.47-29-19.09-31.76-36-4.84-29.14,33.74-70.15,58.23-65.65,11.9,2.18,24.57,21.88,36.21,48.25C765.9,612,787.08,707,781.47,707.94Z" transform="translate(-116.53 -5.77)"/></g><g id="Layer_4" data-name="Layer 4"><path class="cls-4" d="M679.9,488.76c7.52,44.13,5.22,73.06-11.72,109.06-8.37,17.79-45.56,108.31-127.06,131.3-9,2.52-35.84,9.74-65.65,0-7.49-2.45-25.83-9.46-68.82-60.36-36.19-42.84-54.28-64.27-64.59-97.41-8.95-28.79-8.53-53.56-6.35-81.53,9.67-123.83,14.5-185.75,52.94-223.41,56.54-55.39,174.7-49.57,281.65,3.18Z" transform="translate(-116.53 -5.77)"/></g><g id="Layer_2" data-name="Layer 2"><path class="cls-5" d="M454.29,235.7c-16.65,50.74-29.67,90.9-32.27,113.21-32.22,9-59.86,43.49-65.14,54.09a93.5,93.5,0,0,0-6.12,16.13c-2.62,11.15-.06,17-11.88,45.28-14.08,33.68-25.82,26.77-39.24,53-33,64.56,6.36,135.33-24.29,176.75-20.71,28-69.48,38-105.88,21.18-35.05-16.19-53.31-66.71-52.94-86.83.28-15,68.82-58.23,105.88-131.29,77-151.7,6.9-268.7,124.94-412.94C364.81,63,401,20,457.55,9.11c2.06-.39,4.15-.75,6.27-1.06A219,219,0,0,1,518.22,7C522.18,63.92,470.82,185.38,454.29,235.7Z" transform="translate(-116.53 -5.77)"/><path class="cls-6" d="M790.41,764.2a85.18,85.18,0,0,0,.93-32c-1.41-8.47-4.23-15.51-9.87-29.6C778.38,694.91,776,688,771,679.72s-9.1-12.41-14-21.76c-21-40.37-16.43-27-39.46-63.31-19.4-30.6-33.88-69.83-49.41-86.12-35.65-37.41-46.23-2.12-137.65-74.83-51.19-40.72-51.26-81.3-86.69-86.46,17.87-68.51,76.72-194,85.85-243.48,6-32.55,7.12-70.89,8.58-93.68C558.53,14.3,577,21.52,591.94,31.35c0,0,51.89,28.59,83.3,79.41,29.4,51.41,30,54.11,32.12,61.42,3.2,10.9,3.49,18.45,4.23,25.06,1.77,15.69,6.83,27.87,16.94,52.23,11.91,28.69,14.89,27.47,22.24,46.24,10.63,27.17,12.49,50.42,13.76,68.11,2.94,40.66-5.51,45.69,0,78.35,2.17,12.83,7.12,26.38,16.94,52.94,19.44,52.58,22.19,50.55,31.77,79.41a443.61,443.61,0,0,1,20.47,98.83,357.11,357.11,0,0,1,1.76,50.83c-1,27-1.57,40.44-8.47,56.47-3.84,8.93-15.83,33-41.29,46.93-31.2,17.06-71.77,16.24-70,11.3,0-.12,1.32-.37,4.34-.71,12.75-5.46,36.79-18,55.06-44.11A123.24,123.24,0,0,0,790.41,764.2Z" transform="translate(-116.53 -5.77)"/><path class="cls-7" d="M508.88,106.53" transform="translate(-116.53 -5.77)"/><path class="cls-8" d="M546,11.87c-1.46,22.79-9.59,60.93-15.6,93.48-9.13,49.44-68.71,173.38-86.58,241.89-1.06-.16-2.17-.28-3.31-.36a54.43,54.43,0,0,0-18.51,2c2.6-22.31,15.62-62.47,32.27-113.21C470.82,185.38,522.18,63.92,518.22,7,525.05,7.67,539.5,10.51,546,11.87Z" transform="translate(-116.53 -5.77)"/></g></svg>